<mxfile host="app.diagrams.net" modified="2023-06-16T02:05:47.540Z" agent="Mozilla/5.0 (Macintosh; Intel Mac OS X 10_15_7) AppleWebKit/537.36 (KHTML, like Gecko) Chrome/114.0.0.0 Safari/537.36" version="21.4.0" etag="l0wXC86_zCKpIpf-IsPe" type="github">
  <diagram name="Page-1" id="0zBCrvUsfO5Et2ztm0o8">
    <mxGraphModel>
      <root>
        <mxCell id="0" />
        <mxCell id="1" parent="0" />
      </root>
    </mxGraphModel>
  </diagram>
</mxfile>
